<svg width="30" height="30" viewBox="0 0 30 30" fill="none" xmlns="http://www.w3.org/2000/svg">
<path d="M13.6963 15.4427C13.6381 15.3846 13.5919 15.3156 13.5604 15.2397C13.5289 15.1638 13.5127 15.0824 13.5127 15.0002C13.5127 14.918 13.5289 14.8365 13.5604 14.7606C13.5919 14.6847 13.6381 14.6157 13.6963 14.5577L19.4288 8.82641C19.7805 8.47483 19.9782 7.99792 19.9783 7.5006C19.9784 7.00328 19.781 6.52628 19.4294 6.17453C19.0778 5.82279 18.6009 5.62512 18.1036 5.625C17.6063 5.62488 17.1293 5.82233 16.7775 6.17391L11.045 11.9064C10.226 12.7277 9.76605 13.8403 9.76605 15.0002C9.76605 16.1601 10.226 17.2726 11.045 18.0939L16.7775 23.8264C17.1293 24.178 17.6063 24.3754 18.1036 24.3753C18.6009 24.3752 19.0778 24.1775 19.4294 23.8258C19.781 23.474 19.9784 22.997 19.9783 22.4997C19.9782 22.0024 19.7805 21.5255 19.4288 21.1739L13.6963 15.4427Z" fill="black"/>
</svg>
