<svg width="51" height="51" viewBox="0 0 51 51" fill="none" xmlns="http://www.w3.org/2000/svg">
<g clip-path="url(#clip0_2718_3116)">
<path d="M3.20945 12.9182C3.62804 12.9177 4.0426 13 4.4292 13.1605C4.81581 13.3209 5.16681 13.5564 5.46195 13.8532L21.7671 30.1562C22.2604 30.6497 22.8461 31.0411 23.4907 31.3082C24.1354 31.5752 24.8263 31.7127 25.5241 31.7127C26.2218 31.7127 26.9128 31.5752 27.5574 31.3082C28.202 31.0411 28.7878 30.6497 29.2811 30.1562L45.5607 13.8745C45.8547 13.57 46.2065 13.3272 46.5954 13.1601C46.9842 12.9931 47.4025 12.9052 47.8257 12.9015C48.249 12.8978 48.6687 12.9785 49.0604 13.1387C49.4522 13.299 49.8081 13.5357 50.1073 13.835C50.4066 14.1342 50.6433 14.4901 50.8036 14.8819C50.9638 15.2736 51.0445 15.6933 51.0408 16.1166C51.0371 16.5398 50.9492 16.9581 50.7822 17.3469C50.6151 17.7358 50.3723 18.0876 50.0678 18.3816L33.7882 34.6633C31.595 36.8524 28.6228 38.0819 25.5241 38.0819C22.4253 38.0819 19.4531 36.8524 17.26 34.6633L0.954829 18.3603C0.508758 17.9146 0.204945 17.3465 0.0818352 16.728C-0.0412748 16.1095 0.0218508 15.4683 0.263224 14.8857C0.504598 14.3031 0.91337 13.8052 1.43782 13.455C1.96227 13.1047 2.57882 12.9179 3.20945 12.9182Z" fill="white"/>
</g>
<defs>
<clipPath id="clip0_2718_3116">
<rect width="51" height="51" fill="white"/>
</clipPath>
</defs>
</svg>
