<svg width="26" height="26" viewBox="0 0 26 26" fill="none" xmlns="http://www.w3.org/2000/svg">
<g clip-path="url(#clip0_2718_3139)">
<path d="M18.417 0H7.58366C6.14707 0 4.76932 0.570683 3.7535 1.58651C2.73768 2.60233 2.16699 3.98008 2.16699 5.41667V11.9167H23.8337V5.41667C23.8337 3.98008 23.263 2.60233 22.2472 1.58651C21.2313 0.570683 19.8536 0 18.417 0V0ZM14.0837 7.58334H11.917C11.6297 7.58334 11.3541 7.4692 11.151 7.26604C10.9478 7.06287 10.8337 6.78732 10.8337 6.5C10.8337 6.21269 10.9478 5.93714 11.151 5.73397C11.3541 5.53081 11.6297 5.41667 11.917 5.41667H14.0837C14.371 5.41667 14.6465 5.53081 14.8497 5.73397C15.0529 5.93714 15.167 6.21269 15.167 6.5C15.167 6.78732 15.0529 7.06287 14.8497 7.26604C14.6465 7.4692 14.371 7.58334 14.0837 7.58334Z" fill="white"/>
<path d="M2.16699 20.5835C2.16699 21.2948 2.3071 21.9992 2.57931 22.6564C2.85152 23.3136 3.25051 23.9107 3.7535 24.4137C4.76932 25.4295 6.14707 26.0002 7.58366 26.0002H18.417C19.1283 26.0002 19.8327 25.8601 20.4899 25.5879C21.147 25.3156 21.7442 24.9167 22.2472 24.4137C22.7501 23.9107 23.1491 23.3136 23.4213 22.6564C23.6936 21.9992 23.8337 21.2948 23.8337 20.5835V14.0835H2.16699V20.5835ZM11.917 18.4168H14.0837C14.371 18.4168 14.6465 18.531 14.8497 18.7341C15.0529 18.9373 15.167 19.2129 15.167 19.5002C15.167 19.7875 15.0529 20.063 14.8497 20.2662C14.6465 20.4694 14.371 20.5835 14.0837 20.5835H11.917C11.6297 20.5835 11.3541 20.4694 11.151 20.2662C10.9478 20.063 10.8337 19.7875 10.8337 19.5002C10.8337 19.2129 10.9478 18.9373 11.151 18.7341C11.3541 18.531 11.6297 18.4168 11.917 18.4168Z" fill="white"/>
</g>
<defs>
<clipPath id="clip0_2718_3139">
<rect width="26" height="26" fill="white"/>
</clipPath>
</defs>
</svg>
