<svg width="26" height="26" viewBox="0 0 26 26" fill="none" xmlns="http://www.w3.org/2000/svg">
<g clip-path="url(#clip0_2718_3125)">
<path d="M9.425 19.5002H3.25C1.63258 19.5002 0 18.2717 0 15.5287V10.0687C0.0227794 7.57937 0.954879 5.18427 2.62077 3.33441C4.28667 1.48454 6.57141 0.307561 9.04475 0.0251015C10.4405 -0.076218 11.8417 0.124098 13.1531 0.612438C14.4645 1.10078 15.6554 1.8657 16.645 2.85522C17.6345 3.84474 18.3994 5.03568 18.8877 6.34711C19.3761 7.65853 19.5764 9.05971 19.4751 10.4554C19.1923 12.9298 18.0143 15.2153 16.1631 16.8813C14.3119 18.5473 11.9154 19.4788 9.425 19.5002ZM21.6667 9.83685H21.6537C21.6537 10.0936 21.6537 10.3504 21.6407 10.6082C21.2225 16.4669 15.8676 21.4264 9.841 21.6463V21.6625C10.6 22.9789 11.6917 24.0726 13.0067 24.8339C14.3218 25.5952 15.8138 25.9974 17.3333 26.0002H22.75C23.612 26.0002 24.4386 25.6578 25.0481 25.0483C25.6576 24.4388 26 23.6121 26 22.7502V17.3335C25.9984 15.8137 25.5972 14.321 24.8367 13.0052C24.0761 11.6894 22.9829 10.5968 21.6667 9.83685Z" fill="white"/>
</g>
<defs>
<clipPath id="clip0_2718_3125">
<rect width="26" height="26" fill="white"/>
</clipPath>
</defs>
</svg>
