<svg width="27" height="37" viewBox="0 0 27 37" fill="none" xmlns="http://www.w3.org/2000/svg">
<path d="M0.718794 34L0.718794 36.2816H5.28195L5.28195 34L0.718794 34ZM3.00038 13.6113L5.28196 13.6113L3.00038 13.6113ZM16.8323 23.71L16.1373 21.5368L16.8323 23.71ZM2.3048 25.9603C1.10464 26.3442 0.442965 27.6284 0.826914 28.8286C1.21086 30.0287 2.49504 30.6904 3.6952 30.3065L2.3048 25.9603ZM17.1387 3.6158L17.8995 1.46483L17.8995 1.46483L17.1387 3.6158ZM3.00037 34H5.28195L5.28196 28.1333H3.00038H0.718795L0.718794 34L3.00037 34ZM3.00038 28.1333H5.28196L5.28196 13.6113L3.00038 13.6113H0.718798L0.718795 28.1333H3.00038ZM16.8323 23.71L16.1373 21.5368L2.30542 25.9601L3.00038 28.1333L3.69533 30.3064L17.5272 25.8831L16.8323 23.71ZM3.00038 28.1333L2.30517 25.9602L2.3048 25.9603L3 28.1334L3.6952 30.3065L3.69558 30.3063L3.00038 28.1333ZM17.1387 3.6158L16.3778 5.76677C23.8926 8.42507 23.7297 19.1088 16.1373 21.5368L16.8323 23.71L17.5272 25.8831C29.2833 22.1237 29.5355 5.58095 17.8995 1.46483L17.1387 3.6158ZM3.00038 13.6113L5.28196 13.6113C5.28196 7.86778 10.963 3.85136 16.3778 5.76677L17.1387 3.6158L17.8995 1.46483C9.51538 -1.50099 0.718799 4.71805 0.718798 13.6113H3.00038Z" fill="black"/>
</svg>
